<?xml version="1.0" encoding="UTF-8" standalone="no"?>
<!DOCTYPE svg PUBLIC "-//W3C//DTD SVG 1.1//EN" "http://www.w3.org/Graphics/SVG/1.1/DTD/svg11.dtd">
<svg width="100%" height="100%" viewBox="0 0 369 90" version="1.1" xmlns="http://www.w3.org/2000/svg" xmlns:xlink="http://www.w3.org/1999/xlink" xml:space="preserve" style="fill-rule:evenodd;clip-rule:evenodd;stroke-linejoin:round;stroke-miterlimit:2;">
    <g transform="matrix(4.16667,0,0,4.16667,-959.438,-2235.61)">
        <g transform="matrix(1,0,0,1,285.792,545.752)">
            <path d="M0,5.739C-0.925,5.739 -1.708,4.982 -1.708,3.942C-1.708,2.902 -0.925,2.144 0,2.144C0.924,2.144 1.707,2.902 1.707,3.942C1.707,4.982 0.924,5.739 0,5.739M0,0.154C-2.594,0.154 -3.839,2.196 -3.839,3.942C-3.839,5.688 -2.594,7.729 0,7.729C2.593,7.729 3.839,5.688 3.839,3.942C3.839,2.196 2.593,0.154 0,0.154M-19.705,0.141C-20.797,0.141 -21.529,0.719 -21.965,1.412C-22.53,0.36 -23.39,0.141 -24.019,0.141C-25.354,0.141 -25.817,0.848 -25.984,1.143L-26.009,1.143L-26.009,0.385L-27.999,0.385L-27.999,7.511L-25.868,7.511L-25.868,3.723C-25.868,3.3 -25.868,2.144 -24.661,2.144C-23.596,2.144 -23.596,3.248 -23.596,3.633L-23.596,7.511L-21.464,7.511L-21.464,3.621C-21.464,3.223 -21.464,2.144 -20.283,2.144C-19.192,2.144 -19.192,3.146 -19.192,3.723L-19.192,7.511L-17.061,7.511L-17.061,3.621C-17.061,2.041 -17.163,1.567 -17.831,0.861C-18.409,0.257 -19.205,0.141 -19.705,0.141M-31.478,7.511L-29.347,7.511L-29.347,0.386L-31.478,0.386L-31.478,7.511ZM-7.458,0.141C-8.55,0.141 -9.281,0.719 -9.718,1.412C-10.283,0.36 -11.143,0.141 -11.772,0.141C-13.107,0.141 -13.57,0.848 -13.736,1.143L-13.762,1.143L-13.762,0.385L-15.752,0.385L-15.752,7.511L-13.621,7.511L-13.621,3.723C-13.621,3.3 -13.621,2.144 -12.414,2.144C-11.349,2.144 -11.349,3.248 -11.349,3.633L-11.349,7.511L-9.217,7.511L-9.217,3.621C-9.217,3.223 -9.217,2.144 -8.036,2.144C-6.945,2.144 -6.945,3.146 -6.945,3.723L-6.945,7.511L-4.814,7.511L-4.814,3.621C-4.814,2.041 -4.916,1.567 -5.584,0.861C-6.162,0.257 -6.958,0.141 -7.458,0.141M-31.478,-0.372L-29.347,-0.372L-29.347,-1.99L-31.478,-1.99L-31.478,-0.372Z" style="fill:rgb(33,72,127);fill-rule:nonzero;"/>
        </g>
        <g transform="matrix(1,0,0,1,311.006,547.896)">
            <path d="M0,3.595C-0.925,3.595 -1.708,2.838 -1.708,1.798C-1.708,0.758 -0.925,0 0,0C0.924,0 1.707,0.758 1.707,1.798C1.707,2.838 0.924,3.595 0,3.595M0,-1.99C-2.594,-1.99 -3.839,0.052 -3.839,1.798C-3.839,3.544 -2.594,5.585 0,5.585C2.593,5.585 3.839,3.544 3.839,1.798C3.839,0.052 2.593,-1.99 0,-1.99M-8.19,3.608C-9.205,3.608 -9.885,2.838 -9.885,1.798C-9.885,0.771 -9.205,-0.064 -8.19,-0.013C-7.305,-0.013 -6.881,0.501 -6.65,0.989L-4.493,0.989C-4.852,-0.757 -6.38,-2.003 -8.268,-2.003C-10.399,-2.003 -12.029,-0.308 -12.029,1.785C-12.029,3.903 -10.373,5.598 -8.216,5.598C-6.29,5.598 -4.865,4.276 -4.48,2.658L-6.65,2.658C-6.881,3.094 -7.305,3.608 -8.19,3.608M-18.037,1.015C-17.947,0.591 -17.523,-0.205 -16.419,-0.205C-15.315,-0.205 -14.891,0.591 -14.802,1.015L-18.037,1.015ZM-16.432,-2.003C-18.602,-2.003 -20.168,-0.167 -20.168,1.823C-20.168,3.942 -18.435,5.598 -16.394,5.598C-15.662,5.598 -14.956,5.38 -14.365,4.956C-13.762,4.545 -13.261,3.929 -12.914,3.133L-15.097,3.133C-15.392,3.505 -15.739,3.801 -16.394,3.801C-17.228,3.801 -17.934,3.3 -18.063,2.452L-12.722,2.452C-12.696,2.285 -12.671,2.17 -12.671,1.888C-12.671,-0.282 -14.262,-2.003 -16.432,-2.003" style="fill:rgb(88,186,82);fill-rule:nonzero;"/>
        </g>
        <g transform="matrix(1,0,0,1,318.506,542.82)">
            <path d="M0,2.54C0.011,2.524 0.02,2.507 0.03,2.491C0.077,2.416 0.12,2.338 0.155,2.256C0.239,2.057 0.286,1.838 0.286,1.608L0.286,-0.737L-2.06,-0.737C-2.221,-0.737 -2.378,-0.713 -2.526,-0.669C-2.535,-0.667 -2.545,-0.665 -2.554,-0.662C-3.128,-0.483 -3.571,0 -3.694,0.596C-3.705,0.65 -3.713,0.705 -3.719,0.761C-3.725,0.817 -3.728,0.873 -3.728,0.931C-3.728,0.931 -3.727,1.588 -3.726,1.588C-3.71,1.87 -3.477,2.094 -3.191,2.094C-3.047,2.094 -2.917,2.036 -2.82,1.944L-1.607,0.73C-1.49,0.613 -1.298,0.613 -1.181,0.73C-1.064,0.847 -1.064,1.039 -1.181,1.156L-2.394,2.369L-2.395,2.369C-2.487,2.465 -2.545,2.596 -2.545,2.74C-2.545,3.026 -2.321,3.259 -2.039,3.275C-2.039,3.276 -1.382,3.277 -1.382,3.277C-0.809,3.277 -0.301,2.984 0,2.54" style="fill:rgb(88,186,82);fill-rule:nonzero;"/>
        </g>
        <g transform="matrix(1,0,0,1,317.464,552.282)">
            <path d="M0,0.006L0.112,0.006C0.298,0.006 0.32,-0.111 0.32,-0.171C0.32,-0.283 0.238,-0.339 0.115,-0.339L0,-0.339L0,0.006ZM-0.303,-0.616L0.089,-0.616C0.306,-0.616 0.39,-0.59 0.47,-0.528C0.572,-0.447 0.622,-0.317 0.622,-0.19C0.622,-0.048 0.549,0.162 0.315,0.2L0.651,0.622L0.289,0.622L0.003,0.222L0,0.222L0,0.622L-0.303,0.622L-0.303,-0.616Z" style="fill:rgb(88,186,82);fill-rule:nonzero;"/>
        </g>
        <g transform="matrix(1,0,0,1,317.595,553.268)">
            <path d="M0,-1.967C-0.542,-1.967 -0.984,-1.526 -0.984,-0.983C-0.984,-0.441 -0.542,-0 0,-0C0.542,-0 0.984,-0.441 0.984,-0.983C0.984,-1.526 0.542,-1.967 0,-1.967M0,0.214C-0.66,0.214 -1.198,-0.323 -1.198,-0.983C-1.198,-1.644 -0.66,-2.181 0,-2.181C0.66,-2.181 1.198,-1.644 1.198,-0.983C1.198,-0.323 0.66,0.214 0,0.214" style="fill:rgb(88,186,82);fill-rule:nonzero;"/>
        </g>
    </g>
    <g transform="matrix(4.16667,0,0,4.16667,-959.438,-2235.61)">
        <g transform="matrix(1,0,0,1,247.948,550.004)">
            <path d="M0,2.815C-0.777,2.815 -1.408,2.185 -1.408,1.407C-1.408,0.63 -0.777,0 0,0C0.777,0 1.408,0.63 1.408,1.407C1.408,2.185 0.777,2.815 0,2.815" style="fill:rgb(255,231,0);fill-rule:nonzero;"/>
        </g>
        <g transform="matrix(1,0,0,1,245.85,546.982)">
            <path d="M0,2.472C-0.683,2.472 -1.236,1.919 -1.236,1.236C-1.236,0.553 -0.683,0 0,0C0.683,0 1.236,0.553 1.236,1.236C1.236,1.919 0.683,2.472 0,2.472" style="fill:rgb(246,139,30);fill-rule:nonzero;"/>
        </g>
        <g transform="matrix(1,0,0,1,248.225,545.032)">
            <path d="M0,2.198C-0.607,2.198 -1.099,1.706 -1.099,1.099C-1.099,0.492 -0.607,0 0,0C0.607,0 1.099,0.492 1.099,1.099C1.099,1.706 0.607,2.198 0,2.198" style="fill:rgb(239,91,161);fill-rule:nonzero;"/>
        </g>
        <g transform="matrix(1,0,0,1,249.051,547.373)">
            <path d="M0,1.415C-0.391,1.415 -0.707,1.098 -0.707,0.708C-0.707,0.317 -0.391,0 0,0C0.391,0 0.707,0.317 0.707,0.708C0.707,1.098 0.391,1.415 0,1.415" style="fill:rgb(0,192,243);fill-rule:nonzero;"/>
        </g>
        <g transform="matrix(1,0,0,1,246.514,544.459)">
            <path d="M0,1.225C-0.338,1.225 -0.613,0.951 -0.613,0.612C-0.613,0.274 -0.338,0 0,0C0.338,0 0.613,0.274 0.613,0.612C0.613,0.951 0.338,1.225 0,1.225" style="fill:rgb(0,192,243);fill-rule:nonzero;"/>
        </g>
        <g transform="matrix(1,0,0,1,249.24,549.186)">
            <path d="M0,0.848C-0.234,0.848 -0.424,0.658 -0.424,0.424C-0.424,0.19 -0.234,0 0,0C0.234,0 0.424,0.19 0.424,0.424C0.424,0.658 0.234,0.848 0,0.848" style="fill:rgb(91,186,71);fill-rule:nonzero;"/>
        </g>
        <g transform="matrix(1,0,0,1,247.97,548.657)">
            <path d="M0,0.669C-0.185,0.669 -0.334,0.519 -0.334,0.335C-0.334,0.15 -0.185,0 0,0C0.185,0 0.334,0.15 0.334,0.335C0.334,0.519 0.185,0.669 0,0.669" style="fill:rgb(255,231,0);fill-rule:nonzero;"/>
        </g>
        <g transform="matrix(1,0,0,1,243.234,555.606)">
            <path d="M0,0.851C-0.235,0.851 -0.426,0.66 -0.426,0.425C-0.426,0.19 -0.235,0 0,0C0.235,0 0.426,0.19 0.426,0.425C0.426,0.66 0.235,0.851 0,0.851" style="fill:rgb(91,186,71);fill-rule:nonzero;"/>
        </g>
        <g transform="matrix(1,0,0,1,244.712,555.624)">
            <path d="M0,1.406C-0.388,1.406 -0.703,1.091 -0.703,0.703C-0.703,0.315 -0.388,0 0,0C0.388,0 0.703,0.315 0.703,0.703C0.703,1.091 0.388,1.406 0,1.406" style="fill:rgb(239,91,161);fill-rule:nonzero;"/>
        </g>
        <g transform="matrix(0.999881,0.0154541,0.0154541,-0.999881,239.442,555.29)">
            <path d="M0.015,-0C-0.521,-0 -0.956,0.435 -0.956,0.971C-0.955,1.507 -0.521,1.942 0.015,1.941C0.551,1.941 0.986,1.507 0.986,0.971C0.985,0.434 0.551,0 0.015,-0" style="fill:rgb(255,231,0);fill-rule:nonzero;"/>
        </g>
        <g transform="matrix(1,0,0,1,248.14,544.145)">
            <path d="M0,0.593C-0.164,0.593 -0.297,0.46 -0.297,0.296C-0.297,0.132 -0.164,0 0,0C0.164,0 0.297,0.132 0.297,0.296C0.297,0.46 0.164,0.593 0,0.593" style="fill:rgb(91,186,71);fill-rule:nonzero;"/>
        </g>
        <g transform="matrix(1,0,0,1,244.135,551.866)">
            <path d="M0,3.33C-0.92,3.33 -1.665,2.585 -1.665,1.665C-1.665,0.745 -0.92,0 0,0C0.92,0 1.665,0.745 1.665,1.665C1.665,2.585 0.92,3.33 0,3.33" style="fill:rgb(255,231,0);fill-rule:nonzero;"/>
        </g>
        <g transform="matrix(0.999909,-0.0134819,-0.0134819,-0.999909,247.108,554.926)">
            <path d="M-0.012,-0C-0.504,-0 -0.902,0.398 -0.902,0.89C-0.902,1.381 -0.504,1.78 -0.012,1.78C0.479,1.78 0.878,1.382 0.878,0.89C0.878,0.399 0.48,0 -0.012,-0" style="fill:rgb(246,139,30);fill-rule:nonzero;"/>
        </g>
        <g transform="matrix(1,0,0,1,246.313,554.959)">
            <path d="M0,0.79C-0.218,0.79 -0.395,0.613 -0.395,0.395C-0.395,0.177 -0.218,0 0,0C0.218,0 0.395,0.177 0.395,0.395C0.395,0.613 0.218,0.79 0,0.79" style="fill:rgb(0,192,243);fill-rule:nonzero;"/>
        </g>
        <g transform="matrix(1,0,0,1,245.018,549.924)">
            <path d="M0,1.398C-0.386,1.398 -0.699,1.085 -0.699,0.699C-0.699,0.313 -0.386,0 0,0C0.386,0 0.699,0.313 0.699,0.699C0.699,1.085 0.386,1.398 0,1.398" style="fill:rgb(91,186,71);fill-rule:nonzero;"/>
        </g>
        <g transform="matrix(0.707107,0.707107,0.707107,-0.707107,230.817,548.818)">
            <path d="M0.485,-0.201C0.865,-0.201 1.172,0.106 1.172,0.485C1.172,0.865 0.865,1.172 0.485,1.172C0.106,1.172 -0.201,0.865 -0.201,0.485C-0.201,0.106 0.106,-0.201 0.485,-0.201" style="fill:rgb(91,186,71);fill-rule:nonzero;"/>
        </g>
        <g transform="matrix(-0.752234,0.658896,0.658896,0.752234,246.12,542.328)">
            <path d="M0.953,-2.534C1.752,-2.535 2.399,-1.887 2.399,-1.088C2.4,-0.289 1.752,0.358 0.953,0.358C0.154,0.359 -0.493,-0.289 -0.493,-1.088C-0.494,-1.887 0.154,-2.534 0.953,-2.534" style="fill:rgb(255,231,0);fill-rule:nonzero;"/>
        </g>
        <g transform="matrix(-0.75224,0.65889,0.65889,0.75224,243.205,544.623)">
            <path d="M0.364,-0.967C0.668,-0.966 0.915,-0.72 0.915,-0.416C0.916,-0.11 0.669,0.136 0.364,0.137C0.059,0.137 -0.188,-0.11 -0.187,-0.415C-0.188,-0.719 0.059,-0.967 0.364,-0.967" style="fill:rgb(246,139,30);fill-rule:nonzero;"/>
        </g>
        <g transform="matrix(-0.752392,0.658715,0.658715,0.752392,245.383,544.248)">
            <path d="M0.221,-0.59C0.407,-0.591 0.558,-0.44 0.558,-0.254C0.558,-0.067 0.408,0.083 0.221,0.082C0.035,0.083 -0.115,-0.068 -0.115,-0.253C-0.115,-0.44 0.035,-0.59 0.221,-0.59" style="fill:rgb(255,231,0);fill-rule:nonzero;"/>
        </g>
        <g transform="matrix(-0.752577,0.658505,0.658505,0.752577,232.956,553.109)">
            <path d="M0.158,-0.419C0.289,-0.419 0.396,-0.312 0.396,-0.18C0.396,-0.047 0.289,0.059 0.158,0.059C0.026,0.059 -0.081,-0.048 -0.082,-0.181C-0.082,-0.312 0.026,-0.419 0.158,-0.419" style="fill:rgb(255,231,0);fill-rule:nonzero;"/>
        </g>
        <g transform="matrix(-0.752577,0.658505,0.658505,0.752577,235.249,551.826)">
            <path d="M0.203,-0.54C0.373,-0.54 0.511,-0.402 0.511,-0.232C0.511,-0.062 0.373,0.076 0.203,0.076C0.033,0.076 -0.105,-0.062 -0.105,-0.232C-0.105,-0.402 0.033,-0.54 0.203,-0.54" style="fill:rgb(255,231,0);fill-rule:nonzero;"/>
        </g>
        <g transform="matrix(-0.752481,0.658614,0.658614,0.752481,245.529,545.815)">
            <path d="M0.638,-1.698C1.174,-1.698 1.608,-1.264 1.607,-0.728C1.607,-0.194 1.173,0.241 0.638,0.241C0.103,0.24 -0.331,-0.193 -0.332,-0.728C-0.331,-1.264 0.102,-1.698 0.638,-1.698" style="fill:rgb(0,192,243);fill-rule:nonzero;"/>
        </g>
        <g transform="matrix(-0.752577,0.658505,0.658505,0.752577,246.575,546.276)">
            <path d="M0.168,-0.447C0.309,-0.447 0.423,-0.333 0.423,-0.192C0.424,-0.05 0.309,0.063 0.168,0.063C0.026,0.064 -0.087,-0.051 -0.087,-0.192C-0.087,-0.333 0.027,-0.447 0.168,-0.447" style="fill:rgb(255,231,0);fill-rule:nonzero;"/>
        </g>
        <g transform="matrix(-0.752325,0.658792,0.658792,0.752325,246.143,551.91)">
            <path d="M0.162,-0.431C0.297,-0.431 0.408,-0.32 0.408,-0.185C0.408,-0.05 0.298,0.06 0.162,0.061C0.026,0.06 -0.084,-0.05 -0.084,-0.185C-0.083,-0.321 0.027,-0.431 0.162,-0.431" style="fill:rgb(255,231,0);fill-rule:nonzero;"/>
        </g>
        <g transform="matrix(-0.752325,0.658792,0.658792,0.752325,233.057,549.348)">
            <path d="M0.162,-0.431C0.297,-0.431 0.408,-0.32 0.408,-0.185C0.408,-0.05 0.298,0.06 0.162,0.061C0.026,0.06 -0.084,-0.05 -0.084,-0.185C-0.083,-0.321 0.027,-0.431 0.162,-0.431" style="fill:rgb(255,231,0);fill-rule:nonzero;"/>
        </g>
        <g transform="matrix(-0.752826,0.65822,0.65822,0.752826,242.353,554.711)">
            <path d="M0.163,-0.436C0.3,-0.436 0.412,-0.325 0.412,-0.187C0.412,-0.05 0.301,0.061 0.163,0.061C0.026,0.061 -0.085,-0.05 -0.086,-0.188C-0.085,-0.325 0.026,-0.436 0.163,-0.436" style="fill:rgb(255,231,0);fill-rule:nonzero;"/>
        </g>
        <g transform="matrix(-0.752355,0.658758,0.658758,0.752355,247.867,543.538)">
            <path d="M0.552,-1.469C1.015,-1.47 1.391,-1.094 1.39,-0.631C1.391,-0.168 1.015,0.208 0.552,0.208C0.089,0.208 -0.287,-0.168 -0.286,-0.631C-0.287,-1.094 0.088,-1.469 0.552,-1.469" style="fill:rgb(91,186,71);fill-rule:nonzero;"/>
        </g>
        <g transform="matrix(-0.752612,0.658464,0.658464,0.752612,243.14,540.398)">
            <path d="M0.577,-1.535C1.061,-1.535 1.453,-1.143 1.453,-0.659C1.453,-0.175 1.061,0.217 0.577,0.218C0.093,0.217 -0.299,-0.175 -0.299,-0.659C-0.299,-1.143 0.093,-1.535 0.577,-1.535" style="fill:rgb(0,192,243);fill-rule:nonzero;"/>
        </g>
        <g transform="matrix(-0.752881,0.658156,0.658156,0.752881,242.85,542.092)">
            <path d="M0.268,-0.713C0.493,-0.713 0.675,-0.53 0.675,-0.306C0.675,-0.081 0.492,0.101 0.268,0.1C0.044,0.1 -0.139,-0.082 -0.139,-0.306C-0.139,-0.531 0.044,-0.713 0.268,-0.713" style="fill:rgb(255,231,0);fill-rule:nonzero;"/>
        </g>
        <g transform="matrix(-0.751938,0.659234,0.659234,0.751938,241.64,541.701)">
            <path d="M0.16,-0.425C0.294,-0.426 0.403,-0.316 0.403,-0.183C0.403,-0.049 0.294,0.06 0.16,0.06C0.027,0.06 -0.082,-0.048 -0.082,-0.182C-0.082,-0.316 0.026,-0.425 0.16,-0.425" style="fill:rgb(255,231,0);fill-rule:nonzero;"/>
        </g>
        <g transform="matrix(-0.802333,0.596877,0.596877,0.802333,234.053,551.509)">
            <path d="M0.765,-2.311C0.056,-2.312 -0.518,-1.737 -0.518,-1.028C-0.518,-0.32 0.057,0.254 0.765,0.254C1.474,0.254 2.047,-0.32 2.048,-1.029C2.048,-1.738 1.473,-2.311 0.765,-2.311" style="fill:rgb(91,186,71);fill-rule:nonzero;"/>
        </g>
        <g transform="matrix(-0.802416,0.596766,0.596766,0.802416,238.175,553.083)">
            <path d="M0.783,-2.366C0.058,-2.367 -0.529,-1.779 -0.529,-1.054C-0.53,-0.328 0.058,0.259 0.784,0.259C1.509,0.26 2.096,-0.328 2.096,-1.054C2.097,-1.779 1.509,-2.366 0.783,-2.366" style="fill:rgb(239,91,161);fill-rule:nonzero;"/>
        </g>
        <g transform="matrix(-0.802202,0.597052,0.597052,0.802202,238.441,555.525)">
            <path d="M0.324,-0.979C0.023,-0.979 -0.22,-0.736 -0.219,-0.436C-0.219,-0.135 0.024,0.108 0.324,0.108C0.624,0.108 0.868,-0.136 0.867,-0.436C0.868,-0.736 0.624,-0.98 0.324,-0.979" style="fill:rgb(0,192,243);fill-rule:nonzero;"/>
        </g>
        <g transform="matrix(-0.802396,0.596792,0.596792,0.802396,235.587,548.478)">
            <path d="M0.715,-2.162C0.053,-2.162 -0.484,-1.625 -0.484,-0.962C-0.484,-0.3 0.053,0.237 0.715,0.236C1.378,0.237 1.914,-0.3 1.915,-0.963C1.914,-1.625 1.377,-2.162 0.715,-2.162" style="fill:rgb(0,192,243);fill-rule:nonzero;"/>
        </g>
        <g transform="matrix(-0.802401,0.596786,0.596786,0.802401,236.956,555.898)">
            <path d="M0.655,-1.977C0.049,-1.976 -0.442,-1.485 -0.442,-0.88C-0.443,-0.275 0.048,0.216 0.655,0.217C1.26,0.216 1.751,-0.275 1.751,-0.881C1.751,-1.486 1.26,-1.977 0.655,-1.977" style="fill:rgb(246,139,30);fill-rule:nonzero;"/>
        </g>
        <g transform="matrix(-0.802569,0.596559,0.596559,0.802569,234.626,554.544)">
            <path d="M0.445,-1.342C0.033,-1.343 -0.3,-1.009 -0.301,-0.597C-0.301,-0.186 0.033,0.147 0.445,0.148C0.856,0.148 1.19,-0.185 1.19,-0.596C1.19,-1.009 0.856,-1.342 0.445,-1.342" style="fill:rgb(0,192,243);fill-rule:nonzero;"/>
        </g>
        <g transform="matrix(-0.802032,0.597282,0.597282,0.802032,234.802,552.873)">
            <path d="M0.263,-0.796C0.019,-0.796 -0.179,-0.598 -0.178,-0.354C-0.178,-0.11 0.02,0.088 0.263,0.088C0.508,0.088 0.705,-0.11 0.705,-0.355C0.706,-0.599 0.508,-0.796 0.263,-0.796" style="fill:rgb(255,231,0);fill-rule:nonzero;"/>
        </g>
        <g transform="matrix(-0.802413,0.596769,0.596769,0.802413,237.325,557.098)">
            <path d="M0.222,-0.671C0.016,-0.671 -0.15,-0.504 -0.15,-0.298C-0.15,-0.093 0.017,0.074 0.222,0.074C0.428,0.074 0.594,-0.093 0.595,-0.298C0.594,-0.504 0.428,-0.67 0.222,-0.671" style="fill:rgb(246,139,30);fill-rule:nonzero;"/>
        </g>
        <g transform="matrix(-0.802204,0.59705,0.59705,0.802204,236.186,550.614)">
            <path d="M0.454,-1.37C0.034,-1.371 -0.306,-1.03 -0.306,-0.61C-0.307,-0.19 0.035,0.15 0.454,0.15C0.874,0.151 1.215,-0.19 1.214,-0.61C1.215,-1.03 0.874,-1.37 0.454,-1.37" style="fill:rgb(246,139,30);fill-rule:nonzero;"/>
        </g>
        <g transform="matrix(-0.803237,0.595659,0.595659,0.803237,243.533,557.48)">
            <path d="M0.132,-0.4C0.01,-0.4 -0.09,-0.301 -0.09,-0.178C-0.09,-0.056 0.009,0.044 0.132,0.044C0.254,0.044 0.353,-0.056 0.354,-0.178C0.354,-0.3 0.254,-0.399 0.132,-0.4" style="fill:rgb(0,192,243);fill-rule:nonzero;"/>
        </g>
        <g transform="matrix(0.210867,-0.977515,-0.977515,-0.210867,241.733,555.547)">
            <path d="M-1.272,-1.027C-0.552,-1.028 0.03,-0.445 0.03,0.275C0.03,0.994 -0.552,1.576 -1.272,1.576C-1.991,1.576 -2.573,0.994 -2.573,0.275C-2.574,-0.445 -1.991,-1.027 -1.272,-1.027" style="fill:rgb(0,192,243);fill-rule:nonzero;"/>
        </g>
        <g transform="matrix(0.210793,-0.977531,-0.977531,-0.210793,241.587,553.004)">
            <path d="M-0.608,-0.491C-0.264,-0.491 0.013,-0.213 0.014,0.131C0.014,0.474 -0.264,0.752 -0.608,0.752C-0.951,0.753 -1.229,0.474 -1.23,0.131C-1.23,-0.213 -0.952,-0.491 -0.608,-0.491" style="fill:rgb(0,192,243);fill-rule:nonzero;"/>
        </g>
        <g transform="matrix(0.211032,-0.977479,-0.977479,-0.211032,238.92,556.366)">
            <path d="M-0.755,-0.609C-0.328,-0.609 0.017,-0.264 0.017,0.163C0.017,0.59 -0.328,0.935 -0.755,0.935C-1.182,0.935 -1.527,0.59 -1.527,0.163C-1.527,-0.264 -1.182,-0.609 -0.755,-0.609" style="fill:rgb(255,231,0);fill-rule:nonzero;"/>
        </g>
        <g transform="matrix(-0.99829,0.0584515,0.0584515,0.99829,236.14,547.107)">
            <path d="M0.038,-1.299C-0.321,-1.299 -0.612,-1.009 -0.612,-0.649C-0.612,-0.29 -0.322,0 0.038,0.001C0.397,0.001 0.687,-0.29 0.688,-0.649C0.688,-1.008 0.397,-1.299 0.038,-1.299" style="fill:rgb(255,231,0);fill-rule:nonzero;"/>
        </g>
        <g transform="matrix(-0.998239,0.0593216,0.0593216,0.998239,239.116,537.034)">
            <path d="M0.014,-0.488C-0.122,-0.488 -0.23,-0.379 -0.23,-0.244C-0.23,-0.109 -0.122,0 0.014,0C0.149,0 0.258,-0.109 0.258,-0.244C0.258,-0.379 0.149,-0.488 0.014,-0.488" style="fill:rgb(0,192,243);fill-rule:nonzero;"/>
        </g>
        <g transform="matrix(-0.999548,0.0300749,0.0300749,0.999548,241.311,544.031)">
            <path d="M0.025,-1.695C-0.443,-1.695 -0.822,-1.316 -0.822,-0.847C-0.822,-0.379 -0.443,0 0.025,0C0.494,0 0.873,-0.379 0.873,-0.847C0.873,-1.316 0.494,-1.695 0.025,-1.695" style="fill:rgb(91,186,71);fill-rule:nonzero;"/>
        </g>
        <g transform="matrix(0.7222,-0.691684,-0.691684,-0.7222,235.203,545.88)">
            <path d="M-0.17,-0.068C-0.034,-0.068 0.076,0.042 0.075,0.177C0.075,0.313 -0.035,0.423 -0.17,0.423C-0.305,0.423 -0.416,0.312 -0.415,0.177C-0.415,0.041 -0.305,-0.069 -0.17,-0.068" style="fill:rgb(0,192,243);fill-rule:nonzero;"/>
        </g>
        <g transform="matrix(0.72161,-0.692299,-0.692299,-0.72161,237.502,545.115)">
            <path d="M-0.248,-0.1C-0.05,-0.1 0.109,0.06 0.11,0.258C0.11,0.456 -0.05,0.617 -0.248,0.617C-0.445,0.616 -0.606,0.456 -0.606,0.259C-0.606,0.06 -0.446,-0.1 -0.248,-0.1" style="fill:rgb(0,192,243);fill-rule:nonzero;"/>
        </g>
        <g transform="matrix(0.722642,-0.691223,-0.691223,-0.722642,238.352,544.591)">
            <path d="M-0.132,-0.053C-0.027,-0.053 0.059,0.033 0.059,0.138C0.059,0.243 -0.027,0.329 -0.132,0.329C-0.237,0.329 -0.323,0.243 -0.323,0.138C-0.323,0.033 -0.237,-0.053 -0.132,-0.053" style="fill:rgb(255,231,0);fill-rule:nonzero;"/>
        </g>
        <g transform="matrix(0.472278,-0.88145,-0.88145,-0.472278,231.174,544.688)">
            <path d="M-0.217,-0.13C-0.081,-0.129 0.029,-0.02 0.029,0.117C0.03,0.252 -0.081,0.362 -0.217,0.362C-0.352,0.361 -0.462,0.252 -0.463,0.116C-0.463,-0.02 -0.352,-0.13 -0.217,-0.13" style="fill:rgb(255,231,0);fill-rule:nonzero;"/>
        </g>
        <g transform="matrix(0.7216,-0.69231,-0.69231,-0.7216,238.982,542.897)">
            <path d="M-0.26,-0.105C-0.052,-0.104 0.116,0.063 0.116,0.271C0.115,0.479 -0.052,0.647 -0.26,0.647C-0.467,0.647 -0.636,0.479 -0.636,0.271C-0.635,0.063 -0.468,-0.105 -0.26,-0.105" style="fill:rgb(0,192,243);fill-rule:nonzero;"/>
        </g>
        <g transform="matrix(-0.166013,0.986124,0.986124,0.166013,239.879,539.777)">
            <path d="M1.091,-1.289C1.701,-1.289 2.196,-0.794 2.196,-0.183C2.196,0.427 1.701,0.922 1.091,0.921C0.48,0.922 -0.015,0.427 -0.015,-0.184C-0.015,-0.794 0.48,-1.29 1.091,-1.289" style="fill:rgb(246,139,30);fill-rule:nonzero;"/>
        </g>
        <g transform="matrix(-0.166105,0.986108,0.986108,0.166105,239.691,543.448)">
            <path d="M0.656,-0.776C1.023,-0.776 1.322,-0.478 1.322,-0.11C1.322,0.257 1.023,0.555 0.656,0.555C0.289,0.555 -0.01,0.257 -0.01,-0.11C-0.01,-0.478 0.289,-0.776 0.656,-0.776" style="fill:rgb(255,231,0);fill-rule:nonzero;"/>
        </g>
        <g transform="matrix(-1,0.000906344,0.000906344,1,234.74,540.641)">
            <path d="M0.002,-3.309C-0.913,-3.309 -1.653,-2.568 -1.653,-1.655C-1.653,-0.74 -0.913,0.001 0.002,0.001C0.916,0 1.657,-0.74 1.656,-1.654C1.656,-2.569 0.916,-3.309 0.002,-3.309" style="fill:rgb(91,186,71);fill-rule:nonzero;"/>
        </g>
        <g transform="matrix(-1,0.000604961,0.000604961,1,236.129,542.807)">
            <path d="M0,-1.653C-0.455,-1.653 -0.826,-1.283 -0.826,-0.827C-0.826,-0.371 -0.457,-0.001 0,0C0.456,-0 0.826,-0.37 0.827,-0.826C0.827,-1.282 0.456,-1.653 0,-1.653" style="fill:rgb(239,91,161);fill-rule:nonzero;"/>
        </g>
        <g transform="matrix(-1,0.000726744,0.000726744,1,233.349,542.264)">
            <path d="M0,-1.377C-0.38,-1.377 -0.687,-1.069 -0.688,-0.688C-0.688,-0.308 -0.38,-0.001 0,-0.001C0.381,-0 0.688,-0.308 0.689,-0.689C0.689,-1.069 0.38,-1.377 0,-1.377" style="fill:rgb(246,139,30);fill-rule:nonzero;"/>
        </g>
        <g transform="matrix(-1,0.000974658,0.000974658,1,230.78,538.654)">
            <path d="M0,-1.027C-0.283,-1.027 -0.512,-0.798 -0.513,-0.513C-0.513,-0.23 -0.283,-0.001 0,-0.001C0.285,-0 0.514,-0.231 0.514,-0.514C0.514,-0.798 0.283,-1.027 0,-1.027" style="fill:rgb(255,231,0);fill-rule:nonzero;"/>
        </g>
        <g transform="matrix(-0.999999,0.00133333,0.00133333,0.999999,231.6,542.356)">
            <path d="M0,-0.751C-0.207,-0.751 -0.374,-0.583 -0.374,-0.376C-0.375,-0.168 -0.207,-0.001 0,-0.001C0.209,-0 0.376,-0.169 0.376,-0.377C0.376,-0.584 0.207,-0.751 0,-0.751" style="fill:rgb(0,192,243);fill-rule:nonzero;"/>
        </g>
        <g transform="matrix(-0.999999,0.0010917,0.0010917,0.999999,237.484,540.753)">
            <path d="M0.001,-0.916C-0.252,-0.916 -0.457,-0.711 -0.457,-0.458C-0.458,-0.205 -0.252,0 0.001,0C0.253,-0 0.458,-0.205 0.459,-0.459C0.459,-0.712 0.253,-0.916 0.001,-0.916" style="fill:rgb(0,192,243);fill-rule:nonzero;"/>
        </g>
        <g transform="matrix(-1,0.000892458,0.000892458,1,232.475,547.418)">
            <path d="M0.001,-2.24C-0.618,-2.24 -1.12,-1.738 -1.119,-1.12C-1.119,-0.501 -0.618,0.001 0.001,0.001C0.62,0 1.122,-0.501 1.121,-1.12C1.121,-1.738 0.62,-2.24 0.001,-2.24" style="fill:rgb(255,231,0);fill-rule:nonzero;"/>
        </g>
        <g transform="matrix(-1,0.000778816,0.000778816,1,231.7,540.292)">
            <path d="M0.001,-1.284C-0.354,-1.284 -0.641,-0.997 -0.642,-0.641C-0.642,-0.287 -0.354,0 0.001,0C0.355,-0 0.642,-0.287 0.643,-0.642C0.643,-0.997 0.355,-1.284 0.001,-1.284" style="fill:rgb(0,192,243);fill-rule:nonzero;"/>
        </g>
        <g transform="matrix(-1,0.000806451,0.000806451,1,234.304,545.279)">
            <path d="M0.001,-2.48C-0.684,-2.48 -1.24,-1.925 -1.239,-1.24C-1.239,-0.555 -0.684,0.001 0.001,0C0.686,0 1.242,-0.555 1.241,-1.24C1.241,-1.925 0.686,-2.48 0.001,-2.48" style="fill:rgb(91,186,71);fill-rule:nonzero;"/>
        </g>
    </g>
</svg>
